<?xml version="1.0" ?><!DOCTYPE svg  PUBLIC '-//W3C//DTD SVG 1.1//EN'  'http://www.w3.org/Graphics/SVG/1.1/DTD/svg11.dtd'><svg height="100%" style="fill-rule:evenodd;clip-rule:evenodd;stroke-linejoin:round;stroke-miterlimit:2;" version="1.1" viewBox="0 0 32 32" width="100%" xml:space="preserve" xmlns="http://www.w3.org/2000/svg" xmlns:serif="http://www.serif.com/" xmlns:xlink="http://www.w3.org/1999/xlink"><path d="M4.993,14.82l0,3.839c0,5.688 4.912,10.341 11.004,10.341c6.091,0 11.003,-4.653 11.003,-10.341l0,-3.839c0.415,-0.148 0.797,-0.387 1.114,-0.705c0.563,-0.562 0.879,-1.326 0.879,-2.121l0,-6c0,-0.796 -0.316,-1.559 -0.879,-2.122c-0.562,-0.562 -1.325,-0.878 -2.121,-0.878c-4.519,-0 -15.474,-0 -19.993,-0c-0.796,-0 -1.559,0.316 -2.121,0.878c-0.563,0.563 -0.879,1.326 -0.879,2.122c0,1.743 -0,4.257 0,6c-0,0.795 0.316,1.559 0.879,2.121c0.317,0.318 0.699,0.557 1.114,0.705Zm2,0.174l0,3.665c0,4.623 4.053,8.341 9.004,8.341c4.95,0 9.003,-3.718 9.003,-8.341l0,-3.665l-18.007,-0Zm20,-9l0,6c0,0.265 -0.105,0.519 -0.293,0.707c-0.187,0.187 -0.442,0.293 -0.707,0.293l-19.993,-0c-0.265,-0 -0.52,-0.106 -0.707,-0.293c-0.188,-0.188 -0.293,-0.442 -0.293,-0.707l-0,-6c-0,-0.265 0.105,-0.52 0.293,-0.707c0.187,-0.188 0.442,-0.293 0.707,-0.293l19.993,-0c0.265,-0 0.52,0.105 0.707,0.293c0.188,0.187 0.293,0.442 0.293,0.707Z"/><path d="M15.993,17c-2.208,-0 -4,1.792 -4,4c0,2.208 1.792,4 4,4c2.208,-0 4,-1.792 4,-4c0,-2.208 -1.792,-4 -4,-4Zm0,2c1.104,-0 2,0.896 2,2c0,1.104 -0.896,2 -2,2c-1.104,-0 -2,-0.896 -2,-2c0,-1.104 0.896,-2 2,-2Z"/><g id="Icon"/></svg>