<?xml version="1.0" ?><svg viewBox="0 0 480 480" xmlns="http://www.w3.org/2000/svg"><g data-name="22-graph" id="_22-graph"><path d="M480,439.782l-.008-16-24,.011V176a8,8,0,0,0-8-8H416a8,8,0,0,0-8,8V423.816l-16,.007V352a8,8,0,0,0-8-8H352a8,8,0,0,0-8,8v71.846l-32,.015V256a8,8,0,0,0-8-8H272a8,8,0,0,0-8,8V423.884l-16,.007V336a8,8,0,0,0-8-8H208a8,8,0,0,0-8,8v87.914l-32,.014V224a8,8,0,0,0-8-8H128a8,8,0,0,0-8,8V423.951l-16,.007V304a8,8,0,0,0-8-8H64a8,8,0,0,0-8,8V423.981L24,424V112H8V432a8,8,0,0,0,8,8h0ZM424,184h16V423.8l-16,.008ZM360,360h16v63.831l-16,.007Zm-80-96h16V423.869l-16,.007Zm-64,80h16v79.9l-16,.008ZM136,232h16V423.936l-16,.008ZM72,312H88V423.966l-16,.008Z"/><rect height="16" width="64" x="392" y="20"/><rect height="16" width="64" x="392" y="68"/><rect height="16" width="64" x="392" y="116"/><circle cx="364" cy="28" r="12"/><circle cx="364" cy="76" r="12"/><circle cx="364" cy="124" r="12"/><path d="M192,184a88,88,0,1,0-88-88A88.1,88.1,0,0,0,192,184Zm-67.472-62.886L186.179,105.7l15.41,61.641a71.83,71.83,0,0,1-77.061-46.228ZM264,96a72.114,72.114,0,0,1-46.886,67.472L200,95.015V24.455A72.1,72.1,0,0,1,264,96ZM184,24.455v65.3L120.658,105.59A71.863,71.863,0,0,1,184,24.455Z"/></g></svg>