<?xml version="1.0" ?><!DOCTYPE svg  PUBLIC '-//W3C//DTD SVG 1.1//EN'  'http://www.w3.org/Graphics/SVG/1.1/DTD/svg11.dtd'><svg enable-background="new 138.408 -189.801 34.142 32.443" height="32.443px" id="Layer_1" version="1.1" viewBox="138.408 -189.801 34.142 32.443" width="34.142px" xml:space="preserve" xmlns="http://www.w3.org/2000/svg" xmlns:xlink="http://www.w3.org/1999/xlink"><g><g><path d="M160.201-157.357c-2.496,0-4.845-0.029-7.085-0.089c-3.484-0.091-4.188-2.154-4.298-3.376    c-0.239-2.67-0.213-5.478,1.585-7.918c0.572-0.776,1.21-1.702,1.868-2.656c1.065-1.545,2.168-3.144,3.161-4.368    c0.348-0.43,0.977-0.496,1.405-0.146c0.43,0.348,0.495,0.978,0.147,1.406c-0.943,1.164-2.023,2.729-3.068,4.245    c-0.671,0.973-1.32,1.914-1.903,2.707c-1.403,1.903-1.407,4.274-1.203,6.553c0.043,0.485,0.134,1.498,2.357,1.556    c4.242,0.111,8.88,0.116,14.179,0.015c1.087-0.02,1.768-0.406,3.149-3.774c-1.001-3.546-3.228-6.425-7.603-9.856    c-0.223-0.174-0.36-0.434-0.38-0.715l-0.608-8.539c-0.039-0.551,0.375-1.028,0.927-1.067c0.552-0.027,1.029,0.376,1.068,0.927    l0.577,8.098c3.296,2.625,6.75,5.986,8.041,10.967c0.053,0.207,0.039,0.427-0.041,0.624c-1.438,3.579-2.567,5.291-5.095,5.339    C164.849-157.381,162.464-157.357,160.201-157.357z"/></g><g><path d="M148.595-161.287c-4.738,0-8.261-2.576-9.724-7.149c-0.512-1.602-0.776-3.998,0.16-5.479    c1.06-1.676,2.484-3.091,3.861-4.459c0.553-0.549,1.105-1.1,1.634-1.664c0.053-0.058,0.111-0.106,0.174-0.148    c0.048-0.136,0.11-0.35,0.167-0.631c0.16-0.797,0.108-1.008-0.017-1.518c-0.079-0.321-0.178-0.72-0.25-1.322    c-0.201-1.647-0.128-3.106,0.25-5.036c0.105-0.542,0.626-0.898,1.174-0.789c0.542,0.106,0.895,0.632,0.789,1.174    c-0.392,1.997-0.374,3.207-0.228,4.409c0.06,0.484,0.139,0.806,0.207,1.087c0.177,0.719,0.267,1.237,0.035,2.389    c-0.282,1.403-0.671,1.774-1.015,1.951c-0.009,0.005-0.019,0.01-0.027,0.014c-0.482,0.508-0.982,1.005-1.482,1.502    c-1.358,1.35-2.642,2.625-3.58,4.108c-0.439,0.695-0.416,2.329,0.055,3.803c1.271,3.974,4.179,5.956,8.407,5.742    c0.555-0.018,1.021,0.396,1.05,0.947s-0.396,1.021-0.947,1.05C149.054-161.293,148.822-161.287,148.595-161.287z"/></g><g><path d="M155.092-173.986c-0.063,0-0.13-0.006-0.195-0.02c-0.34-0.068-0.45-0.096-0.535-0.102    c-0.188,0.003-0.358,0.006-0.699-0.005c-2.966-0.104-5.933-0.167-8.899-0.229l-3.359-0.073c-0.552-0.012-0.989-0.47-0.978-1.022    c0.013-0.552,0.447-1.011,1.022-0.977l3.355,0.072c2.977,0.062,5.953,0.124,8.929,0.229c0.281,0.009,0.421,0.006,0.515,0.005    c0.312-0.01,0.396,0.009,1.024,0.135c0.542,0.108,0.9,0.637,0.793,1.179C155.97-174.316,155.558-173.986,155.092-173.986z"/></g><g><path d="M167.27-168.276h-8.39c-0.552,0-1-0.448-1-1s0.448-1,1-1h8.39c0.552,0,1,0.448,1,1S167.822-168.276,167.27-168.276z"/></g><g><path d="M155.929-175.25c-0.22,0-0.439-0.071-0.624-0.219l-3.906-3.124c-0.237-0.189-0.375-0.478-0.375-0.781v-8.313    c0-0.552,0.448-1,1-1s1,0.448,1,1v7.832l3.529,2.822c0.432,0.345,0.502,0.974,0.156,1.405    C156.514-175.378,156.223-175.25,155.929-175.25z"/></g><g><path d="M155.092-187.801H142.82c-0.552,0-1-0.448-1-1c0-0.553,0.448-1,1-1h12.271c0.553,0,1,0.447,1,1    C156.092-188.249,155.645-187.801,155.092-187.801z"/></g><g><path d="M156.209-174.134c-0.039,0-0.077-0.002-0.116-0.008c-0.549-0.063-0.941-0.559-0.878-1.107l0.837-7.252    c0.063-0.549,0.565-0.941,1.108-0.878c0.549,0.063,0.942,0.559,0.878,1.107l-0.837,7.252    C157.143-174.509,156.71-174.134,156.209-174.134z"/></g><g><path d="M165.133-182.223h-9.482c-0.552,0-1-0.447-1-1c0-0.552,0.448-1,1-1h9.482c0.553,0,1,0.448,1,1    C166.133-182.671,165.686-182.223,165.133-182.223z"/></g><g><path d="M158.882-168.276c-0.061,0-0.123-0.005-0.185-0.017c-0.683-0.128-1.804-0.197-2.887-0.265    c-1.197-0.073-2.328-0.144-3.133-0.294c-0.543-0.102-0.9-0.624-0.8-1.167c0.102-0.543,0.62-0.901,1.167-0.799    c0.684,0.128,1.805,0.197,2.888,0.265c1.196,0.073,2.328,0.144,3.133,0.294c0.542,0.102,0.899,0.624,0.799,1.167    C159.774-168.612,159.354-168.276,158.882-168.276z"/></g></g></svg>