<?xml version="1.0" ?><svg viewBox="0 0 22.575 22.576" xmlns="http://www.w3.org/2000/svg"><g data-name="Layer 2" id="Layer_2"><g data-name="Layer 1" id="Layer_1-2"><path d="M7.3,4.9a.342.342,0,0,1,.342-.342c.284.011.857-.1.855.342a.342.342,0,0,1-.341.342C7.87,5.234,7.3,5.346,7.3,4.9Zm-5.131.342H3.991a.342.342,0,0,0,0-.684H2.167A.342.342,0,0,0,2.167,5.245Zm1.824,1.6c-.448.046-1.248-.181-1.254.342s.806.3,1.254.342A.342.342,0,0,0,3.991,6.842Zm0,2.28H3.079a.342.342,0,0,0,0,.684h.912A.342.342,0,0,0,3.991,9.122Zm0,2.281H2.167a.342.342,0,0,0,0,.684H3.991A.342.342,0,0,0,3.991,11.4Zm0,2.28H3.079a.342.342,0,0,0,0,.684h.912A.342.342,0,0,0,3.991,13.683ZM7.64,7.526h.514a.343.343,0,0,0,0-.685H7.64A.343.343,0,0,0,7.64,7.526Zm0,4.56h.514a.342.342,0,0,0,0-.684H7.64A.342.342,0,0,0,7.64,12.086Zm0,2.28H9.8a.342.342,0,1,0,0-.684H7.64A.342.342,0,0,0,7.64,14.366Zm6.838-.684H11.635a.342.342,0,0,0,0,.684h2.843A.342.342,0,0,0,14.478,13.682Zm-2.4-4.218a.342.342,0,0,0,.342.342h1.932a.342.342,0,0,0,0-.684H12.421A.342.342,0,0,0,12.079,9.464ZM13.7,5.245h1.777a.342.342,0,0,0,0-.684H13.7A.342.342,0,0,0,13.7,5.245Zm-3.891,0h2.171a.342.342,0,0,0,0-.684H9.806A.342.342,0,0,0,9.806,5.245Zm0,2.281H12.33a.343.343,0,0,0,0-.685H9.806A.343.343,0,0,0,9.806,7.526Zm6.664-.685H14.05a.343.343,0,0,0,0,.685h2.42A.343.343,0,0,0,16.47,6.841Zm3.939,0h-2.25a.343.343,0,0,0,0,.685h2.25A.343.343,0,0,0,20.409,6.841Zm-10.945,4.9a.342.342,0,0,0,.342.342h2.96a.342.342,0,1,0,0-.684H9.806A.342.342,0,0,0,9.464,11.744ZM16.19,11.4h-1.7a.342.342,0,0,0,0,.684h1.7A.342.342,0,0,0,16.19,11.4Zm4.109,0H17.91a.342.342,0,0,0,0,.684H20.3A.342.342,0,0,0,20.3,11.4ZM7.64,9.806H10.7a.342.342,0,0,0,0-.684H7.64A.342.342,0,0,0,7.64,9.806Zm8.091-.342a.342.342,0,0,0,.342.342H19.4a.342.342,0,0,0,0-.684H16.073A.342.342,0,0,0,15.731,9.464ZM16.852,4.9a.342.342,0,0,0,.342.342h1.642a.342.342,0,1,0,0-.684H17.194A.342.342,0,0,0,16.852,4.9Zm5.723-3.649V18.585a1.255,1.255,0,0,1-1.254,1.254H15.734v2.052h2.4a.342.342,0,0,1,0,.684H4.447a.342.342,0,0,1,0-.684H6.841V19.839H1.254A1.256,1.256,0,0,1,0,18.585V1.254A1.256,1.256,0,0,1,1.254,0H21.321A1.255,1.255,0,0,1,22.575,1.254ZM.684,16.419H5.473V3.535a.343.343,0,0,1,.685,0V16.419H21.891V1.254a.571.571,0,0,0-.57-.57H1.254a.571.571,0,0,0-.57.57Zm14.366,3.42H7.525v2.052H15.05ZM21.891,17.1H.684v1.482a.571.571,0,0,0,.57.57H21.321a.571.571,0,0,0,.57-.57ZM16.76,2.508c.642-.06.258-.99-.242-.584A.344.344,0,0,0,16.76,2.508Zm1.824,0a.342.342,0,0,0,0-.684A.342.342,0,0,0,18.584,2.508Zm1.824,0a.344.344,0,0,0,.242-.584C20.153,1.518,19.764,2.447,20.408,2.508Z" id="porgramming"/></g></g></svg>