<?xml version="1.0" ?><!DOCTYPE svg  PUBLIC '-//W3C//DTD SVG 1.1//EN'  'http://www.w3.org/Graphics/SVG/1.1/DTD/svg11.dtd'><svg enable-background="new 398.647 60.192 31.65 33.833" height="33.833px" id="Layer_1" version="1.1" viewBox="398.647 60.192 31.65 33.833" width="31.65px" xml:space="preserve" xmlns="http://www.w3.org/2000/svg" xmlns:xlink="http://www.w3.org/1999/xlink"><g><g><path d="M419.243,94.025c-7.958,0-17.809-0.478-19.48-1.078c-0.229-0.082-0.421-0.245-0.538-0.459    c-0.623-1.132-0.746-2.274-0.348-3.221c0.373-0.883,1.167-1.53,2.236-1.824c1.685-0.465,3.634-0.654,6.113-0.632    c1.421,0.021,2.85,0.12,4.231,0.217c1.896,0.135,3.859,0.273,5.75,0.191c0.71-0.03,1.776-0.709,2.926-1.863    c2.175-2.187,1.488-4.405,0.1-7.803c-0.209-0.512,0.035-1.096,0.547-1.305c0.513-0.207,1.096,0.037,1.305,0.547    c1.218,2.979,2.734,6.687-0.532,9.972c-1.566,1.573-3,2.397-4.26,2.45c-2.003,0.085-4.022-0.057-5.975-0.194    c-1.354-0.095-2.756-0.192-4.118-0.212c-2.28-0.022-4.06,0.147-5.557,0.561c-0.331,0.091-0.759,0.281-0.925,0.674    c-0.123,0.292-0.092,0.681,0.084,1.118c3.69,0.79,23.895,1.146,27.466,0.493c0.165-0.822-0.243-1.031-1.448-1.532    c-0.657-0.273-1.401-0.583-1.961-1.143c-0.327-0.327-0.39-0.835-0.147-1.229l2.563-4.192l-3.383-6.775    c-0.247-0.494-0.046-1.096,0.448-1.342c0.493-0.245,1.096-0.046,1.341,0.448l3.629,7.271c0.154,0.308,0.14,0.674-0.041,0.967    l-2.354,3.853c0.208,0.102,0.438,0.196,0.674,0.295c1.299,0.54,3.472,1.444,2.438,4.509c-0.09,0.267-0.287,0.481-0.544,0.596    C428.441,93.84,424.21,94.025,419.243,94.025z"/></g><g><path d="M412.233,82.253c-0.236,0-0.47-0.084-0.652-0.242l-5.339-4.596c-0.211-0.182-0.337-0.442-0.348-0.722    c-0.011-0.276,0.096-0.548,0.293-0.743l15.464-15.466c0.373-0.375,0.978-0.393,1.372-0.04l5.96,5.313    c0.216,0.192,0.338,0.47,0.334,0.759s-0.134,0.563-0.354,0.75l-4.369,3.698c-0.422,0.358-1.052,0.304-1.409-0.118    c-0.355-0.422-0.304-1.053,0.118-1.409l3.489-2.953l-4.396-3.917l-14.034,14.035l4.095,3.524c1.515-0.582,2.583-1.76,3.708-2.999    c0.658-0.728,1.34-1.479,2.13-2.123c0.428-0.351,1.06-0.286,1.407,0.142c0.35,0.429,0.286,1.059-0.142,1.407    c-0.676,0.551-1.277,1.215-1.915,1.918c-1.38,1.521-2.806,3.092-5.146,3.744C412.413,82.241,412.323,82.253,412.233,82.253z"/></g><g><path d="M421.599,77.772c-0.604,0-1.222-0.104-1.842-0.313c-1.672-0.566-3.587-2.16-3.48-4.786    c0.113-2.869,2.358-3.669,4.163-4.313l0.096-0.032c0.21-0.075,0.44-0.077,0.652-0.008l2.799,0.933    c0.22,0.074,0.397,0.217,0.518,0.396c0.156,0.104,0.285,0.254,0.364,0.44l1.721,4.044c0.146,0.341,0.09,0.733-0.144,1.021    C425.048,76.879,423.372,77.772,421.599,77.772z M420.883,70.326c-1.676,0.604-2.553,1.036-2.607,2.426    c-0.062,1.522,1.105,2.467,2.126,2.812c1.451,0.492,2.861,0.071,4.103-1.226l-1.391-3.27L420.883,70.326z"/></g><g><path d="M410.003,84.589c-0.272,0-0.546-0.111-0.743-0.331l-5.021-5.578c-0.37-0.411-0.336-1.043,0.073-1.412    c0.41-0.369,1.044-0.337,1.412,0.074l5.021,5.578c0.369,0.41,0.336,1.043-0.074,1.412    C410.481,84.504,410.242,84.589,410.003,84.589z"/></g></g></svg>