<?xml version="1.0" ?><svg id="Layer_1" style="enable-background:new 0 0 52 52;" version="1.1" viewBox="0 0 52 52" xml:space="preserve" xmlns="http://www.w3.org/2000/svg" xmlns:xlink="http://www.w3.org/1999/xlink"><style type="text/css">
	.st0{fill:#231F20;}
</style><g><g><path class="st0" d="M16.4293671,3.587604c6.5946541,0.0009377,13.1893082,0.0018752,19.7839622,0.0028126    c-0.375-0.375-0.75-0.75-1.125-1.125c0.0673256,2.7764819,0.9867783,5.1165962,3.0656319,7.042697    c2.1937637,2.0325661,5.9692917,2.2337675,7.03302,5.2651882c0.6942062,1.9783459,0.0795898,5.4614334,0.0624771,7.5632915    c-0.0153427,1.8843536,0.0227814,3.7931118-0.115963,5.671587c-0.3210678,4.3470325-1.2325745,6.8839283-4.0738869,10.091753    c-1.2283363,1.3867836-2.5282326,2.7173882-3.8809586,3.9826698c-3.4152908,3.1945152-8.4222832,7.4566956-13.4118805,6.1921883    c-4.4381351-1.1247482-8.0987978-5.0247345-11.0685425-8.2739792C5.4500751,32.0704956,6.562613,22.6435585,6.693089,12.6081457    c-0.375,0.375-0.75,0.75-1.125,1.125c6.6693654,0.6823273,11.7064533-4.0225782,11.7090225-10.6777344    c0.0005589-1.4477913-2.2494402-1.4501411-2.25,0c-0.0021029,5.4482527-4.0987635,8.9761295-9.4590225,8.4277344    c-0.6112399-0.0625343-1.1177354,0.5662546-1.125,1.125c-0.1283212,9.8696985-1.2605519,19.7865524,5.5649219,27.761013    c5.2091198,6.08601,12.650692,13.2525101,20.9263039,9.0185204c7.616127-3.8965797,16.0192413-11.532486,16.4143486-20.4346581    c0.1396866-3.1472549,0.1676064-6.3029919,0.1545067-9.4528561c-0.0076141-1.8297844,0.592556-5.5353327-0.2456703-7.2803326    c-0.5180473-1.0784578-0.4049149-0.7652292-1.559639-1.5095339c-3.841732-2.4762812-8.2060699-1.9159985-8.3595314-8.2448826    c-0.0147438-0.6080039-0.5034866-1.1249117-1.125-1.125c-6.5946541-0.0009375-13.1893082-0.001875-19.7839622-0.0028125    C14.9815893,1.3373983,14.9792099,3.5873981,16.4293671,3.587604L16.4293671,3.587604z"/></g><g><path class="st0" d="M31.7142162,17.135704c2.2078838,0.8020554,3.4436321,2.6144295,4.8430767,4.3572598    c2.5375023,3.1601429,2.2167282,5.9171944,0.5914955,9.4757805c-2.5351067,5.5508366-7.6874256,7.9517155-13.7834282,6.8754063    c-6.5714359-1.1602516-9.3265533-7.2552567-8.8280735-13.5197392c0.6693354-8.4116583,10.2817345-10.9199352,16.832222-7.586216    c1.2877827,0.6553879,2.427824-1.2851706,1.1356182-1.9428091c-6.7446709-3.4325438-16.7029152-1.8700294-19.6438065,6.0670252    c-2.36623,6.3861237,0.5055561,15.6632614,6.9605389,18.4176483c3.8917828,1.6606522,8.7254143,1.3243561,12.6081524-0.1852264    c3.8765411-1.5071754,5.3564034-4.0423775,7.0171623-7.7385502c2.8856544-6.4222889-0.3166237-13.9133701-7.134819-16.3902054    C30.9491653,14.4708719,30.361702,16.6443787,31.7142162,17.135704L31.7142162,17.135704z"/></g><g><path class="st0" d="M14.4293633,21.8384361c7.5,0,15,0,22.5,0c1.4477692,0,1.4501648-2.25,0-2.25c-7.5,0-15,0-22.5,0    C12.981596,19.5884361,12.9791975,21.8384361,14.4293633,21.8384361L14.4293633,21.8384361z"/></g><g><path class="st0" d="M13.8460302,27.7551041c8.3611116,0,16.7222214,0,25.0833321,0c1.4477692,0,1.4501648-2.25,0-2.25    c-8.3611107,0-16.7222214,0-25.0833321,0C12.398262,25.5051041,12.3958645,27.7551041,13.8460302,27.7551041    L13.8460302,27.7551041z"/></g><g><path class="st0" d="M15.2627373,33.5926933c7.5004997-0.0631409,15.0001106-0.0376968,22.5000038,0.0763359    c1.4483795,0.0220222,1.4488792-2.227972,0-2.2500019c-7.4998989-0.1140327-14.9995098-0.1394749-22.5000038-0.076334    C13.8155966,31.3548756,13.8121471,33.6049042,15.2627373,33.5926933L15.2627373,33.5926933z"/></g><g><path class="st0" d="M25.7910213,15.7094564c4.1368999,2.5700769,4.7154922,6.814187,4.9257698,11.2995062    c0.0739117,1.5765686,0.0616474,3.0915051-0.2658749,4.6399498c-0.6437721,3.0435848-1.0260429,4.5893192-4.1359291,4.6760311    c-2.9292583,0.0816765-3.214859-1.1393814-4.0480461-3.8544235c-0.5871582-1.9133301-0.6264935-3.6950531-0.6917953-5.6444321    c-0.1412926-4.2177086-0.5864658-8.5034733,2.9883156-11.5552797c1.1029415-0.9415865-0.4949608-2.5266752-1.590992-1.5909901    c-4.7398167,4.0464029-4.389534,11.8499212-3.3254681,17.5270119c0.6503887,3.4700069,2.8396835,9.7835369,7.4405251,8.9920406    c4.3587189-0.7498436,5.8237896-7.6650009,5.9208202-11.2609844c0.1590271-5.8937016-0.7261314-11.8440514-6.081707-15.1712399    C25.6931953,13.0003605,24.5622063,14.9460468,25.7910213,15.7094564L25.7910213,15.7094564z"/></g></g></svg>