<?xml version="1.0" ?><!DOCTYPE svg  PUBLIC '-//W3C//DTD SVG 1.1//EN'  'http://www.w3.org/Graphics/SVG/1.1/DTD/svg11.dtd'><svg enable-background="new 406.498 -2.844 22.08 33.797" height="33.797px" id="Layer_1" version="1.1" viewBox="406.498 -2.844 22.08 33.797" width="22.08px" xml:space="preserve" xmlns="http://www.w3.org/2000/svg" xmlns:xlink="http://www.w3.org/1999/xlink"><g><g><path d="M427.58,30.673c-0.324,0-0.643-0.157-0.834-0.447c-0.041-0.061-0.092-0.119-0.141-0.179    c-0.209-0.251-0.494-0.596-0.558-1.086c-0.779-6.193-3.206-10.407-7.635-13.267c-2.473-1.594-4.691-3.471-6.537-5.097    c-3.162-2.786-4.782-6.544-5.099-11.825c-0.033-0.551,0.387-1.023,0.938-1.058c0.545-0.023,1.025,0.387,1.059,0.938    c0.282,4.715,1.688,8.033,4.425,10.444c1.789,1.576,3.938,3.395,6.299,4.916c4.874,3.146,7.663,7.923,8.522,14.604    c0.036,0.052,0.082,0.101,0.124,0.151c0.097,0.115,0.189,0.231,0.268,0.35c0.306,0.46,0.18,1.081-0.28,1.386    C427.961,30.619,427.768,30.673,427.58,30.673z"/></g><g><path d="M410.565,2.224c-0.48,0-0.904-0.347-0.985-0.836c-0.091-0.545,0.277-1.06,0.822-1.15c0.335-0.056,0.67-0.129,1.005-0.201    c0.813-0.178,1.655-0.355,2.532-0.336c2.767,0.071,5.571,0.22,8.285,0.362c1.059,0.057,2.114,0.111,3.173,0.162    c0.552,0.027,0.977,0.496,0.949,1.048c-0.026,0.553-0.507,0.98-1.048,0.95c-1.06-0.052-2.119-0.106-3.179-0.163    c-2.701-0.143-5.493-0.289-8.234-0.359c-0.627-0.016-1.325,0.133-2.054,0.29c-0.368,0.079-0.735,0.159-1.103,0.221    C410.674,2.22,410.62,2.224,410.565,2.224z"/></g><g><path d="M408.055,28.721c-0.544,0-0.988-0.436-1-0.98c-0.01-0.553,0.43-1.009,0.981-1.02l14.782-0.279    c0.548-0.01,1.008,0.431,1.019,0.981s-0.429,1.008-0.98,1.019l-14.782,0.279C408.069,28.721,408.062,28.721,408.055,28.721z"/></g><g><path d="M409.171,23.979c-0.543,0-0.988-0.434-1-0.979c-0.012-0.554,0.427-1.01,0.979-1.021l13.107-0.278c0.008,0,0.016,0,0.021,0    c0.543,0,0.987,0.434,1,0.979c0.012,0.553-0.428,1.01-0.979,1.021l-13.107,0.278C409.184,23.979,409.177,23.979,409.171,23.979z"/></g><g><path d="M424.791,6.407c-0.007,0-0.015,0-0.022,0l-12.551-0.279c-0.552-0.013-0.989-0.471-0.978-1.022    c0.013-0.552,0.427-0.987,1.021-0.978l12.551,0.279c0.553,0.013,0.989,0.47,0.979,1.021    C425.778,5.974,425.333,6.407,424.791,6.407z"/></g><g><path d="M418.375,19.796h-6.415c-0.553,0-1-0.447-1-1s0.447-1,1-1h6.415c0.553,0,1,0.447,1,1S418.927,19.796,418.375,19.796z"/></g><g><path d="M423.435,10.592h-7.293c-0.553,0-1-0.447-1-1s0.447-1,1-1h6.652c0.072-0.152,0.15-0.313,0.23-0.476    c0.477-0.975,1.016-2.077,1.287-3.23c0.355-1.519,0.504-3.076,0.659-4.725c0.067-0.709,0.136-1.419,0.22-2.124    c0.065-0.548,0.552-0.942,1.111-0.874c0.548,0.065,0.939,0.563,0.874,1.111c-0.083,0.688-0.147,1.383-0.214,2.075    c-0.156,1.644-0.315,3.341-0.704,4.992c-0.323,1.373-0.94,2.637-1.438,3.652c-0.179,0.362-0.341,0.695-0.468,0.99    C424.198,10.354,423.836,10.592,423.435,10.592z"/></g><g><path d="M407.499,30.952c-0.021,0-0.042-0.001-0.063-0.002c-0.552-0.035-0.971-0.511-0.936-1.062    c0.029-0.468,0.052-0.935,0.074-1.402c0.049-1.018,0.099-2.068,0.223-3.113c0.622-5.246,4.272-8.292,7.646-10.734    c0.447-0.325,1.072-0.224,1.396,0.223c0.324,0.447,0.225,1.073-0.223,1.396c-3.865,2.8-6.356,5.341-6.832,9.352    c-0.116,0.976-0.162,1.945-0.212,2.975c-0.022,0.478-0.045,0.955-0.075,1.432C408.462,30.545,408.022,30.952,407.499,30.952z"/></g><g><path d="M419.492,13.659c-0.273,0-0.546-0.111-0.743-0.331c-0.369-0.41-0.336-1.043,0.074-1.412l2.788-2.51    c0.41-0.369,1.043-0.338,1.412,0.073c0.368,0.41,0.336,1.043-0.074,1.412l-2.788,2.51    C419.969,13.574,419.73,13.659,419.492,13.659z"/></g></g></svg>