<?xml version="1.0" ?><svg style="enable-background:new 0 0 32 32;" version="1.1" viewBox="0 0 32 32" xml:space="preserve" xmlns="http://www.w3.org/2000/svg" xmlns:xlink="http://www.w3.org/1999/xlink"><g id="Guides"/><g id="_x32_0"/><g id="_x31_9"/><g id="_x31_8"/><g id="_x31_7"/><g id="_x31_6"/><g id="_x31_5"/><g id="_x31_4"/><g id="_x31_3"/><g id="_x31_2"/><g id="_x31_1"/><g id="_x31_0"/><g id="_x30_9"/><g id="_x30_8"/><g id="_x30_7"/><g id="_x30_6"/><g id="_x30_5"/><g id="_x30_4"/><g id="_x30_3"/><g id="_x30_2"/><g id="_x30_1"><path d="M29.7070313,6.2929688l-4-4c-0.0145264-0.0145264-0.0352173-0.0203247-0.0505371-0.0339966   c-0.0670166-0.0593872-0.1398926-0.1084595-0.2201538-0.1479492c-0.0407715-0.0210571-0.0783081-0.0407715-0.1213989-0.0556641   C25.2144775,2.0217285,25.1094971,2,25,2H7C6.890686,2,6.7859497,2.0216064,6.6856689,2.0551147   c-0.0443115,0.0153198-0.0834351,0.0355225-0.1251831,0.057373C6.4816895,2.1515503,6.4101563,2.2001343,6.3441772,2.2584229   c-0.015564,0.013916-0.036438,0.0197754-0.0512085,0.0345459l-4,4C1.9223633,6.6630859,1.9008789,7.2568359,2.2431641,7.6533203   l8.7058716,10.0866089l-5.7058716,6.6067505c-0.3422852,0.3964844-0.3208008,0.9902344,0.0498047,1.3603516l4,4   C9.480957,29.8945313,9.7353516,30,10,30c0.012207,0,0.0244141,0,0.0366211-0.0009766   c0.277832-0.0097656,0.5385742-0.1347656,0.7202148-0.3457031l5.2442017-6.0722656l5.2421265,6.0722656   c0.1816406,0.2109375,0.4423828,0.3359375,0.7202148,0.3457031C21.9755859,30,21.987793,30,22,30   c0.2646484,0,0.519043-0.1054688,0.7070313-0.2929688l4-4c0.3706055-0.3701172,0.3920898-0.9638672,0.0498047-1.3603516   l-5.7086182-6.6097412l8.7086182-10.0836182C30.0991211,7.2568359,30.0776367,6.6630859,29.7070313,6.2929688z M22.8144531,4   l-2.5917969,3h-8.4453125L9.1855469,4H22.8144531z M6.9462891,4.4677734l7.7324219,8.9521484l-2.4086914,2.7900391   L4.3642578,7.0498047L6.9462891,4.4677734z M13.503479,9h4.9936523l-2.4967041,2.8908691L13.503479,9z M19.7290039,19.2695313   l4.9067383,5.6806641l-2.5820313,2.5820313l-4.7315063-5.480957l0.4075928-0.4718628L19.7290039,19.2695313z    M16.4268188,20.0284424l-1.1831665,1.3670654c-0.0024414,0.0028076-0.0030518,0.0064697-0.0054932,0.0093384l-5.2918701,6.1273804   l-2.5820313-2.5820313l5.6625366-6.5565796l0.000061-0.000061l0.0489502-0.0567017L25.0537109,4.4677734l2.5820313,2.5820313   L16.4268188,20.0284424z"/></g></svg>